<svg version="1.1" xmlns="http://www.w3.org/2000/svg" xmlns:xlink="http://www.w3.org/1999/xlink" width="804" height="436"><defs></defs><g><g transform="translate(-494,-294) scale(1,1)"><rect fill="#C0C0C0" stroke="none" x="511" y="391" width="128" height="24" opacity="0.2"></rect></g><g transform="translate(-494,-294) scale(1,1)"><rect fill="#ffffff" stroke="none" x="504" y="384" width="128" height="24"></rect></g><g transform="translate(-494,-294) scale(1,1)"><path fill="none" stroke="#000000" d="M 504 384 L 632 384 L 632 408 L 504 408 L 504 384 Z Z" stroke-miterlimit="10"></path></g><g transform="translate(-494,-294) scale(1,1)"><rect fill="#ffffff" stroke="none" x="504" y="384" width="128" height="24"></rect></g><g transform="translate(-494,-294) scale(1,1)"><path fill="none" stroke="#000000" d="M 504 384 L 632 384 L 632 408 L 504 408 L 504 384 Z Z" stroke-miterlimit="10"></path></g><g transform="translate(-494,-294) scale(1,1)"><g><path fill="none" stroke="none"></path><text fill="#000000" stroke="none" font-family="Arial" font-size="13px" font-style="normal" font-weight="bold" text-decoration="none" x="518" y="403.5">TaiTai P2P Client</text><path fill="none" stroke="#000000" d="M 623 403.5 L 513 403.5" stroke-miterlimit="10"></path></g></g><g transform="translate(-494,-294) scale(1,1)"><rect fill="#C0C0C0" stroke="none" x="1159" y="423" width="128" height="32" opacity="0.2"></rect></g><g transform="translate(-494,-294) scale(1,1)"><rect fill="#ffffff" stroke="none" x="1152" y="416" width="128" height="32"></rect></g><g transform="translate(-494,-294) scale(1,1)"><path fill="none" stroke="#000000" d="M 1152 416 L 1280 416 L 1280 448 L 1152 448 L 1152 416 Z Z" stroke-miterlimit="10"></path></g><g transform="translate(-494,-294) scale(1,1)"><rect fill="#ffffff" stroke="none" x="1152" y="416" width="128" height="32"></rect></g><g transform="translate(-494,-294) scale(1,1)"><path fill="none" stroke="#000000" d="M 1152 416 L 1280 416 L 1280 448 L 1152 448 L 1152 416 Z Z" stroke-miterlimit="10"></path></g><g transform="translate(-494,-294) scale(1,1)"><g><path fill="none" stroke="none"></path><text fill="#000000" stroke="none" font-family="Arial" font-size="13px" font-style="normal" font-weight="bold" text-decoration="none" x="1164" y="435.5">Tching TCP Client</text><path fill="none" stroke="#000000" d="M 1273 435.5 L 1159 435.5" stroke-miterlimit="10"></path></g></g><g transform="translate(-494,-294) scale(1,1)"><rect fill="#C0C0C0" stroke="none" x="1159" y="599" width="136" height="32" opacity="0.2"></rect></g><g transform="translate(-494,-294) scale(1,1)"><rect fill="#ffffff" stroke="none" x="1152" y="592" width="136" height="32"></rect></g><g transform="translate(-494,-294) scale(1,1)"><path fill="none" stroke="#000000" d="M 1152 592 L 1288 592 L 1288 624 L 1152 624 L 1152 592 Z Z" stroke-miterlimit="10"></path></g><g transform="translate(-494,-294) scale(1,1)"><rect fill="#ffffff" stroke="none" x="1152" y="592" width="136" height="32"></rect></g><g transform="translate(-494,-294) scale(1,1)"><path fill="none" stroke="#000000" d="M 1152 592 L 1288 592 L 1288 624 L 1152 624 L 1152 592 Z Z" stroke-miterlimit="10"></path></g><g transform="translate(-494,-294) scale(1,1)"><g><path fill="none" stroke="none"></path><text fill="#000000" stroke="none" font-family="Arial" font-size="13px" font-style="normal" font-weight="bold" text-decoration="none" x="1164.5" y="611.5">Tchang TCP Server</text><path fill="none" stroke="#000000" d="M 1281.5 611.5 L 1158.5 611.5" stroke-miterlimit="10"></path></g></g><g transform="translate(-494,-294) scale(1,1)"><rect fill="#C0C0C0" stroke="none" x="519" y="511" width="119" height="44" opacity="0.2"></rect></g><g transform="translate(-494,-294) scale(1,1)"><rect fill="#ffffff" stroke="none" x="512" y="504" width="119" height="44"></rect></g><g transform="translate(-494,-294) scale(1,1)"><path fill="none" stroke="#000000" d="M 512 504 L 631 504 L 631 548 L 512 548 L 512 504 Z Z" stroke-miterlimit="10"></path></g><g transform="translate(-494,-294) scale(1,1)"><path fill="none" stroke="#000000" d="M 512 529 L 631 529" stroke-miterlimit="10"></path></g><g transform="translate(-494,-294) scale(1,1)"><path fill="none" stroke="#000000" d="M 512 539 L 631 539" stroke-miterlimit="10"></path></g><g transform="translate(-494,-294) scale(1,1)"><g><path fill="none" stroke="none"></path><text fill="#000000" stroke="none" font-family="Arial" font-size="13px" font-style="normal" font-weight="bold" text-decoration="none" x="521.5" y="523.5">TaiTai P2P Client</text></g></g><g transform="translate(-494,-294) scale(1,1)"><path fill="none" stroke="#000000" d="M 1216 449 L 1220 591" stroke-miterlimit="10"></path></g><g transform="translate(-494,-294) scale(1,1)"><path fill="none" stroke="#000000" d="M 568 409 L 570 503" stroke-miterlimit="10" stroke-dasharray="3"></path></g><g transform="translate(-494,-294) scale(1,1)"><path fill="none" stroke="#000000" d="M 565.5752565323953 492.9291685921226 L 570 503 L 573.9923870697424 492.7500807083493" stroke-miterlimit="10"></path></g><g transform="translate(-494,-294) scale(1,1)"><path fill="#C0C0C0" stroke="none" d="M 567 634.5 C 567 628.1487248 572.1487248 623 578.5 623 C 584.8512752 623 590 628.1487248 590 634.5 C 590 640.8512752 584.8512752 646 578.5 646 C 572.1487248 646 567 640.8512752 567 634.5 Z" opacity="0.2"></path></g><g transform="translate(-494,-294) scale(1,1)"><path fill="#ffffff" stroke="none" d="M 560 627.5 C 560 621.1487248 565.1487248 616 571.5 616 C 577.8512752 616 583 621.1487248 583 627.5 C 583 633.8512752 577.8512752 639 571.5 639 C 565.1487248 639 560 633.8512752 560 627.5 Z"></path></g><g transform="translate(-494,-294) scale(1,1)"><path fill="none" stroke="#000000" d="M 560 627.5 C 560 621.1487248 565.1487248 616 571.5 616 C 577.8512752 616 583 621.1487248 583 627.5 C 583 633.8512752 577.8512752 639 571.5 639 C 565.1487248 639 560 633.8512752 560 627.5 Z" stroke-miterlimit="10"></path></g><g transform="translate(-494,-294) scale(1,1)"><g><path fill="none" stroke="none"></path><text fill="#000000" stroke="none" font-family="Arial" font-size="13px" font-style="normal" font-weight="bold" text-decoration="none" x="514" y="658.5">P2P Client Interface</text></g></g><g transform="translate(-494,-294) scale(1,1)"><path fill="none" stroke="#000000" d="M 571 549 L 571 616" stroke-miterlimit="10"></path></g><g transform="translate(-494,-294) scale(1,1)"><rect fill="#C0C0C0" stroke="none" x="727" y="511" width="115" height="44" opacity="0.2"></rect></g><g transform="translate(-494,-294) scale(1,1)"><rect fill="#ffffff" stroke="none" x="720" y="504" width="115" height="44"></rect></g><g transform="translate(-494,-294) scale(1,1)"><path fill="none" stroke="#000000" d="M 720 504 L 835 504 L 835 548 L 720 548 L 720 504 Z Z" stroke-miterlimit="10"></path></g><g transform="translate(-494,-294) scale(1,1)"><path fill="none" stroke="#000000" d="M 720 529 L 835 529" stroke-miterlimit="10"></path></g><g transform="translate(-494,-294) scale(1,1)"><path fill="none" stroke="#000000" d="M 720 539 L 835 539" stroke-miterlimit="10"></path></g><g transform="translate(-494,-294) scale(1,1)"><g><path fill="none" stroke="none"></path><text fill="#000000" stroke="none" font-family="Arial" font-size="13px" font-style="normal" font-weight="bold" text-decoration="none" x="727" y="523.5">SFML TcpSocket</text></g></g><g transform="translate(-494,-294) scale(1,1)"><path fill="none" stroke="#000000" d="M 719 526 L 632 526" stroke-miterlimit="10"></path></g><g transform="translate(-494,-294) scale(1,1)"><path fill="#000000" stroke="none" d="M 642.1626748576241 521.790482243984 L 632 526 L 642.1626748576241 530.209517756016 L 654 526"></path></g><g transform="translate(-494,-294) scale(1,1)"><path fill="none" stroke="#000000" d="M 642.1626748576241 521.790482243984 L 632 526 L 642.1626748576241 530.209517756016 L 654 526 L 642.1626748576241 521.790482243984" stroke-miterlimit="10"></path></g><g transform="translate(-494,-294) scale(1,1)"><rect fill="#C0C0C0" stroke="none" x="895" y="415" width="123" height="44" opacity="0.2"></rect></g><g transform="translate(-494,-294) scale(1,1)"><rect fill="#ffffff" stroke="none" x="888" y="408" width="123" height="44"></rect></g><g transform="translate(-494,-294) scale(1,1)"><path fill="none" stroke="#000000" d="M 888 408 L 1011 408 L 1011 452 L 888 452 L 888 408 Z Z" stroke-miterlimit="10"></path></g><g transform="translate(-494,-294) scale(1,1)"><path fill="none" stroke="#000000" d="M 888 433 L 1011 433" stroke-miterlimit="10"></path></g><g transform="translate(-494,-294) scale(1,1)"><path fill="none" stroke="#000000" d="M 888 443 L 1011 443" stroke-miterlimit="10"></path></g><g transform="translate(-494,-294) scale(1,1)"><g><path fill="none" stroke="none"></path><text fill="#000000" stroke="none" font-family="Arial" font-size="13px" font-style="normal" font-weight="bold" text-decoration="none" x="897.5" y="427.5">Tching TCP Client</text></g></g><g transform="translate(-494,-294) scale(1,1)"><rect fill="#C0C0C0" stroke="none" x="895" y="583" width="132" height="44" opacity="0.2"></rect></g><g transform="translate(-494,-294) scale(1,1)"><rect fill="#ffffff" stroke="none" x="888" y="576" width="132" height="44"></rect></g><g transform="translate(-494,-294) scale(1,1)"><path fill="none" stroke="#000000" d="M 888 576 L 1020 576 L 1020 620 L 888 620 L 888 576 Z Z" stroke-miterlimit="10"></path></g><g transform="translate(-494,-294) scale(1,1)"><path fill="none" stroke="#000000" d="M 888 601 L 1020 601" stroke-miterlimit="10"></path></g><g transform="translate(-494,-294) scale(1,1)"><path fill="none" stroke="#000000" d="M 888 611 L 1020 611" stroke-miterlimit="10"></path></g><g transform="translate(-494,-294) scale(1,1)"><g><path fill="none" stroke="none"></path><text fill="#000000" stroke="none" font-family="Arial" font-size="13px" font-style="normal" font-weight="bold" text-decoration="none" x="898.5" y="595.5">Tchang TCP Server</text></g></g><g transform="translate(-494,-294) scale(1,1)"><path fill="none" stroke="#000000" d="M 834 549 L 897 575" stroke-miterlimit="10"></path></g><g transform="translate(-494,-294) scale(1,1)"><path fill="#000000" stroke="none" d="M 886.000009208736 575.0142334853367 L 897 575 L 889.211767324506 567.2318965125091 L 876.6637734622306 566.6072715875872"></path></g><g transform="translate(-494,-294) scale(1,1)"><path fill="none" stroke="#000000" d="M 886.000009208736 575.0142334853367 L 897 575 L 889.211767324506 567.2318965125091 L 876.6637734622306 566.6072715875872 L 886.000009208736 575.0142334853367" stroke-miterlimit="10"></path></g><g transform="translate(-494,-294) scale(1,1)"><path fill="none" stroke="#000000" d="M 818 503 L 908 453" stroke-miterlimit="10"></path></g><g transform="translate(-494,-294) scale(1,1)"><path fill="#000000" stroke="none" d="M 901.1605463702306 461.61521178185615 L 908 453 L 897.0719012864703 454.2556506310878 L 888.7685399253262 463.6841444859299"></path></g><g transform="translate(-494,-294) scale(1,1)"><path fill="none" stroke="#000000" d="M 901.1605463702306 461.61521178185615 L 908 453 L 897.0719012864703 454.2556506310878 L 888.7685399253262 463.6841444859299 L 901.1605463702306 461.61521178185615" stroke-miterlimit="10"></path></g><g transform="translate(-494,-294) scale(1,1)"><path fill="none" stroke="#000000" d="M 1151 605 L 1021 601" stroke-miterlimit="10" stroke-dasharray="3"></path></g><g transform="translate(-494,-294) scale(1,1)"><path fill="none" stroke="#000000" d="M 1031.2873298909824 597.1050232716867 L 1021 601 L 1031.0284051833708 605.5200762690625" stroke-miterlimit="10"></path></g><g transform="translate(-494,-294) scale(1,1)"><path fill="none" stroke="#000000" d="M 1151 432 L 1012 430" stroke-miterlimit="10" stroke-dasharray="3"></path></g><g transform="translate(-494,-294) scale(1,1)"><path fill="none" stroke="#000000" d="M 1022.2221853707168 425.9371283251003 L 1012 430 L 1022.1010607065922 434.3552924817675" stroke-miterlimit="10"></path></g><g transform="translate(-494,-294) scale(1,1)"><path fill="#C0C0C0" stroke="none" d="M 945.5 322.5 C 945.5 316.1487248 950.6487248 311 957 311 C 963.3512752 311 968.5 316.1487248 968.5 322.5 C 968.5 328.8512752 963.3512752 334 957 334 C 950.6487248 334 945.5 328.8512752 945.5 322.5 Z" opacity="0.2"></path></g><g transform="translate(-494,-294) scale(1,1)"><path fill="#ffffff" stroke="none" d="M 938.5 315.5 C 938.5 309.1487248 943.6487248 304 950 304 C 956.3512752 304 961.5 309.1487248 961.5 315.5 C 961.5 321.8512752 956.3512752 327 950 327 C 943.6487248 327 938.5 321.8512752 938.5 315.5 Z"></path></g><g transform="translate(-494,-294) scale(1,1)"><path fill="none" stroke="#000000" d="M 938.5 315.5 C 938.5 309.1487248 943.6487248 304 950 304 C 956.3512752 304 961.5 309.1487248 961.5 315.5 C 961.5 321.8512752 956.3512752 327 950 327 C 943.6487248 327 938.5 321.8512752 938.5 315.5 Z" stroke-miterlimit="10"></path></g><g transform="translate(-494,-294) scale(1,1)"><g><path fill="none" stroke="none"></path><text fill="#000000" stroke="none" font-family="Arial" font-size="13px" font-style="normal" font-weight="bold" text-decoration="none" x="919" y="346.5">TCP Client</text></g></g><g transform="translate(-494,-294) scale(1,1)"><path fill="#C0C0C0" stroke="none" d="M 948 690.5 C 948 684.1487248 953.1487248 679 959.5 679 C 965.8512752 679 971 684.1487248 971 690.5 C 971 696.8512752 965.8512752 702 959.5 702 C 953.1487248 702 948 696.8512752 948 690.5 Z" opacity="0.2"></path></g><g transform="translate(-494,-294) scale(1,1)"><path fill="#ffffff" stroke="none" d="M 941 683.5 C 941 677.1487248 946.1487248 672 952.5 672 C 958.8512752 672 964 677.1487248 964 683.5 C 964 689.8512752 958.8512752 695 952.5 695 C 946.1487248 695 941 689.8512752 941 683.5 Z"></path></g><g transform="translate(-494,-294) scale(1,1)"><path fill="none" stroke="#000000" d="M 941 683.5 C 941 677.1487248 946.1487248 672 952.5 672 C 958.8512752 672 964 677.1487248 964 683.5 C 964 689.8512752 958.8512752 695 952.5 695 C 946.1487248 695 941 689.8512752 941 683.5 Z" stroke-miterlimit="10"></path></g><g transform="translate(-494,-294) scale(1,1)"><g><path fill="none" stroke="none"></path><text fill="#000000" stroke="none" font-family="Arial" font-size="13px" font-style="normal" font-weight="bold" text-decoration="none" x="920" y="714.5">TCP Server</text></g></g><g transform="translate(-494,-294) scale(1,1)"><path fill="none" stroke="#000000" d="M 954 621 L 952.9166666666666 672" stroke-miterlimit="10"></path></g><g transform="translate(-494,-294) scale(1,1)"><path fill="none" stroke="#000000" d="M 949 407 L 950 327" stroke-miterlimit="10"></path></g></g></svg>